<svg width="32" height="32" viewBox="0 0 32 32" fill="none" xmlns="http://www.w3.org/2000/svg">
<g clip-path="url(#clip0_6_1371)">
<path d="M4.71732 0C2.88798 0 2.21332 0.674667 2.21332 2.504V24.5907C2.21332 24.7973 2.22265 24.9893 2.23865 25.1653C2.28398 25.568 2.28798 25.956 2.66132 26.3947C2.69598 26.4453 3.07465 26.7227 3.07465 26.7227C3.27598 26.824 3.41732 26.8933 3.64798 26.9893L14.76 31.6453C15.3347 31.908 15.5773 32.0133 15.9947 31.9987H16C16.4227 32.0133 16.6653 31.908 17.24 31.6453L28.3507 26.9893C28.5827 26.8933 28.7187 26.824 28.9253 26.7227C28.9253 26.7227 29.304 26.44 29.3387 26.3947C29.712 25.956 29.716 25.568 29.7613 25.1653C29.7773 24.9893 29.788 24.7973 29.788 24.592V2.50267C29.7867 0.674667 29.1107 0 27.2813 0H4.71732ZM22.5253 4.14667H23.432C24.944 4.14667 25.68 4.88267 25.68 6.40933V8.91467H23.8507V6.51067C23.8507 6.02133 23.624 5.79467 23.1507 5.79467H22.8387C22.3493 5.79467 22.1227 6.02133 22.1227 6.51067V14.2613C22.1227 14.7493 22.3493 14.976 22.8387 14.976H23.1853C23.6547 14.976 23.8813 14.7493 23.8813 14.2613V11.488H25.716V14.3467C25.716 15.8733 24.964 16.624 23.448 16.624H22.5253C21.004 16.624 20.2587 15.868 20.2587 14.3467V6.42533C20.2587 4.90267 21.004 4.14667 22.5253 4.14667ZM6.27465 4.248H10.4267V5.95067H8.13865V9.42267H10.3413V11.1213H8.13865V14.82H10.4573V16.5187H6.27465V4.248ZM11.364 4.248H14.292C15.808 4.248 16.5587 5.004 16.5587 6.53067V9.79067C16.5587 11.3173 15.808 12.0693 14.292 12.0693H13.2333V16.5187H11.364V4.248ZM17.4013 4.248H19.2653V16.5187H17.4013V4.248ZM13.228 5.90133V10.4213H14C14.468 10.4213 14.6947 10.1947 14.6947 9.70133V6.62133C14.6947 6.128 14.468 5.90133 14 5.90133H13.228ZM8.08799 19.44H8.36532L8.42665 19.4493H8.52665L8.57732 19.4653H8.62799L8.67865 19.48L8.72799 19.4907L8.77332 19.5L8.81865 19.5107L8.86399 19.52L8.91465 19.536L8.95465 19.5453L8.99465 19.5613L9.04532 19.576L9.08532 19.596L9.13732 19.616L9.18265 19.636L9.22265 19.6627L9.27332 19.6813L9.30799 19.708L9.35865 19.732L9.39865 19.7587L9.44399 19.7827L9.48399 19.8133L9.52399 19.8387L9.56399 19.868L9.60532 19.8987L9.64532 19.9333L9.68532 19.964L9.65599 20.004L9.61999 20.04L9.59065 20.08L9.55465 20.12L9.52532 20.156L9.49465 20.1907L9.45865 20.2307L9.42932 20.2707L9.39865 20.3067L9.36399 20.3467L9.33332 20.3867L9.29732 20.4267L9.26799 20.4627L9.23732 20.5027L9.20265 20.5427L9.17199 20.584L9.13732 20.6187L9.10665 20.6587L9.06665 20.6293L9.02665 20.5947L8.98665 20.568L8.93999 20.5387L8.90532 20.5133L8.85999 20.488L8.81999 20.4627L8.77332 20.4373L8.73332 20.4173L8.69332 20.3973L8.65332 20.3827L8.60799 20.3667L8.55732 20.3533L8.51732 20.3427L8.46665 20.332L8.41599 20.3213L8.36532 20.3173H8.31065L8.24932 20.3067H8.14932L8.09865 20.312H8.04799L7.99732 20.3267L7.95198 20.3373L7.90665 20.352L7.85732 20.3667L7.81732 20.3867L7.76665 20.408L7.73065 20.432L7.69065 20.4587L7.65065 20.4827L7.61465 20.5133L7.57999 20.544L7.54398 20.5733L7.51465 20.6093L7.47465 20.644L7.44799 20.684L7.42399 20.72L7.39332 20.76L7.37332 20.8053L7.34665 20.8453L7.32265 20.8907L7.30798 20.936L7.28665 20.9813L7.27332 21.032L7.26665 21.0827L7.25199 21.128L7.24132 21.184V21.2333L7.23198 21.284V21.404L7.23732 21.456L7.24132 21.5013L7.24665 21.5507L7.25732 21.6013L7.27198 21.6413L7.27732 21.692L7.29199 21.732L7.30798 21.772L7.32799 21.824L7.35332 21.8733L7.37332 21.9133L7.39865 21.9533L7.42798 21.9947L7.45865 22.0347L7.48399 22.0707L7.52399 22.1053L7.55465 22.1413L7.58932 22.1707L7.62932 22.2013L7.66932 22.232L7.71065 22.2573L7.75065 22.2813L7.79598 22.3027L7.84665 22.3227L7.88665 22.3427L7.93732 22.3573L7.98799 22.3733L8.03865 22.3827L8.08799 22.3933L8.13865 22.3987L8.19999 22.4027H8.36532L8.42665 22.3933H8.47599L8.52665 22.3773L8.57732 22.368L8.62799 22.352L8.67332 22.3427L8.71865 22.3227L8.75865 22.3027L8.80932 22.2813L8.83999 22.2613L8.87999 22.236V21.7733H8.14399V21.0267H9.80665V22.6907L9.77199 22.72L9.73199 22.7507L9.69599 22.776L9.65599 22.8067L9.61599 22.8307L9.57599 22.8613L9.53599 22.8867L9.49465 22.912L9.44399 22.9373L9.39865 22.9627L9.35865 22.988L9.30799 23.008L9.26799 23.0333L9.21732 23.0533L9.16665 23.0733L9.11599 23.0933L9.07065 23.1133L9.02532 23.128L8.97999 23.144L8.93065 23.1587L8.88532 23.1733L8.83465 23.1893L8.78932 23.1987L8.73865 23.2093L8.68799 23.22L8.63732 23.2293L8.58799 23.2347L8.53732 23.24L8.48665 23.2453L8.42665 23.2493L8.37599 23.2547L8.31999 23.26H8.05865L8.00265 23.2493H7.95198L7.90265 23.24H7.85199L7.80132 23.224L7.75065 23.2147L7.69999 23.204L7.65065 23.1947L7.61065 23.1787L7.55998 23.1693L7.50932 23.1533L7.46398 23.1333L7.41865 23.1187L7.36799 23.0987L7.32265 23.0787L7.27198 23.0587L7.23198 23.0373L7.18132 23.0133L7.14665 22.9867L7.09598 22.9627L7.05998 22.936L7.01998 22.912L6.97998 22.8813L6.93998 22.8507L6.89465 22.8213L6.86398 22.7907L6.82398 22.76L6.78799 22.7253L6.75332 22.6947L6.71732 22.66L6.68798 22.624L6.65198 22.5893L6.62265 22.5493L6.59199 22.5133L6.56665 22.4733L6.53598 22.4333L6.51065 22.3933L6.48665 22.3533L6.45999 22.3067L6.43599 22.2667L6.41598 22.2213L6.39599 22.176L6.37465 22.1307L6.35465 22.0853L6.33999 22.0453L6.31998 22L6.30932 21.9547L6.29465 21.9093L6.28398 21.8587L6.26932 21.8133L6.25865 21.7627L6.25465 21.7173L6.24398 21.6667L6.23865 21.6213L6.23465 21.5707L6.22932 21.5213L6.22399 21.4707V21.1933L6.23465 21.1427V21.088L6.24799 21.0373V20.9867L6.26399 20.936L6.27998 20.8867L6.28932 20.836L6.30399 20.7907L6.31998 20.74L6.33465 20.6947L6.35465 20.644L6.37465 20.5987L6.39599 20.5533L6.41598 20.508L6.43599 20.4627L6.46132 20.4173L6.48665 20.3773L6.51065 20.3373L6.53732 20.2973L6.56132 20.2573L6.59199 20.216L6.62265 20.176L6.65198 20.136L6.68798 20.1L6.71732 20.0653L6.74799 20.0293L6.78799 19.9947L6.81865 19.9587L6.85865 19.928L6.89465 19.8933L6.93465 19.8627L6.97465 19.8333L7.01465 19.8067L7.05465 19.7773L7.09465 19.752L7.13598 19.7267L7.18132 19.7013L7.23198 19.676L7.27198 19.652L7.32265 19.6307L7.36799 19.6107L7.41865 19.5853L7.45865 19.572L7.50932 19.556L7.55465 19.536L7.59998 19.5253L7.64532 19.5107L7.69599 19.5L7.74132 19.4853L7.79065 19.4747H7.84132L7.89199 19.46H7.94265L7.99332 19.4493H8.04265L8.08799 19.44ZM24.0733 19.4493H24.3493L24.4107 19.46H24.5107L24.5613 19.4747H24.6213L24.672 19.4907L24.7173 19.5L24.768 19.5107L24.8187 19.52L24.864 19.5307L24.9147 19.5453L24.964 19.5613L25.004 19.5707L25.0547 19.5907L25.1053 19.6067L25.1453 19.6267L25.196 19.6467L25.2467 19.6667L25.292 19.6933L25.328 19.712L25.3773 19.7387L25.4227 19.7627L25.4627 19.788L25.5093 19.8187L25.5493 19.8427L25.5893 19.8733L25.6293 19.904L25.6693 19.9333L25.64 19.9733L25.6147 20.0147L25.584 20.0547L25.5547 20.0947L25.524 20.14L25.4987 20.18L25.468 20.22L25.4387 20.2613L25.412 20.3013L25.3827 20.3413L25.352 20.3813L25.3227 20.4227L25.296 20.468L25.2667 20.508L25.232 20.548L25.2053 20.588L25.176 20.6293L25.136 20.5987L25.0907 20.5733L25.0507 20.5493L25.0107 20.5187L24.964 20.4987L24.924 20.472L24.8733 20.4533L24.8387 20.4333L24.788 20.412L24.748 20.392L24.708 20.3773L24.6627 20.3573L24.612 20.3427L24.5613 20.3267L24.5107 20.312L24.456 20.3013L24.4053 20.292L24.3547 20.2813L24.304 20.276L24.2547 20.2707L24.2093 20.2667H24.0973L24.0427 20.276L23.992 20.2867L23.9413 20.296L23.9013 20.3173L23.8667 20.3373L23.8213 20.3773L23.7907 20.4227L23.7707 20.468V20.5933L23.796 20.6493L23.816 20.68L23.8507 20.7147L23.9013 20.7413L23.9413 20.7653L23.992 20.7853L24.0427 20.8053L24.108 20.8253L24.148 20.836L24.188 20.8507L24.2387 20.8613L24.2787 20.876L24.3293 20.8867L24.3853 20.9013L24.44 20.916L24.496 20.932L24.552 20.9413L24.6013 20.9573L24.6573 20.972L24.708 20.9827L24.7573 20.9973L24.808 21.012L24.8587 21.028L24.9093 21.0427L24.9547 21.0573L25.0053 21.0733L25.0547 21.0933L25.1053 21.1187L25.156 21.1387L25.2067 21.164L25.2573 21.1893L25.2973 21.2147L25.3373 21.2387L25.3827 21.2693L25.4187 21.296L25.464 21.3307L25.4987 21.3653L25.5387 21.4053L25.5747 21.4413L25.6 21.4813L25.6347 21.532L25.66 21.5667L25.68 21.6173L25.7053 21.652L25.72 21.7027L25.736 21.7427L25.7453 21.7933L25.756 21.844L25.7653 21.8947L25.7707 21.9453L25.776 21.9947V22.1213L25.7707 22.176L25.7653 22.2267L25.7613 22.2827L25.7507 22.3333L25.736 22.3827L25.7253 22.4333L25.7107 22.484L25.6907 22.5293L25.6707 22.5693L25.6493 22.6147L25.6253 22.6547L25.5947 22.6947L25.568 22.7347L25.544 22.776L25.5093 22.812L25.4787 22.8467L25.4427 22.8773L25.4027 22.912L25.368 22.9427L25.328 22.9733L25.288 22.9973L25.2467 23.028L25.196 23.0533L25.156 23.0733L25.1053 23.1L25.0547 23.1187L25.0053 23.1387L24.9547 23.1547L24.904 23.1693L24.864 23.184L24.8133 23.1947L24.7627 23.2053L24.7227 23.2147L24.672 23.2253H24.6213L24.572 23.2347H24.5213L24.4707 23.2453H24.0973L24.048 23.24L23.9973 23.2347L23.9413 23.2307L23.8907 23.22L23.8413 23.2147L23.7907 23.2053L23.74 23.1947L23.684 23.18L23.6347 23.1693L23.584 23.1547L23.5333 23.144L23.4827 23.1293L23.4333 23.1133L23.3827 23.0933L23.3373 23.0787L23.2867 23.064L23.236 23.0427L23.196 23.0227L23.1453 23.0027L23.1053 22.9773L23.0547 22.9573L23.0093 22.932L22.9747 22.9067L22.924 22.8813L22.888 22.8573L22.8427 22.8307L22.8027 22.8013L22.7627 22.7707L22.7227 22.7413L22.6827 22.7107L22.6467 22.68L22.6067 22.6453L22.636 22.6053L22.672 22.5693L22.7027 22.5293L22.7373 22.4893L22.768 22.4533L22.7973 22.4133L22.8333 22.3733L22.864 22.3373L22.8987 22.2973L22.9293 22.2627L22.964 22.2227L22.9947 22.1827L23.024 22.1467L23.06 22.1067L23.0907 22.0667L23.1253 22.0307L23.1613 21.9907L23.196 22.02L23.2467 22.0507L23.2813 22.0813L23.332 22.1107L23.372 22.1373L23.4173 22.1667L23.4573 22.192L23.504 22.212L23.544 22.2373L23.5893 22.2573L23.64 22.2773L23.68 22.2973L23.7307 22.312L23.7707 22.3333L23.8213 22.3467L23.8707 22.3627L23.9213 22.3787L23.972 22.388L24.0227 22.3987L24.0733 22.408H24.128L24.1787 22.424H24.456L24.5067 22.4133L24.556 22.4027L24.596 22.3933L24.636 22.3787L24.672 22.3573L24.7173 22.328L24.744 22.292L24.768 22.252L24.7827 22.2013V22.0853L24.7627 22.036L24.7333 21.996L24.7027 21.9653L24.6573 21.9347L24.6213 21.9147L24.572 21.8947L24.5213 21.8747L24.4613 21.848L24.4253 21.8387L24.3853 21.828L24.3347 21.8147L24.2947 21.804L24.244 21.788L24.1933 21.7787L24.1387 21.7627L24.088 21.7533L24.032 21.7373L23.9827 21.728L23.932 21.712L23.8813 21.7027L23.8307 21.6867L23.78 21.6733L23.7307 21.6627L23.6853 21.6467L23.64 21.632L23.5947 21.616L23.544 21.596L23.488 21.576L23.4373 21.556L23.388 21.536L23.3373 21.5107L23.2867 21.4853L23.252 21.46L23.2013 21.4347L23.1653 21.4053L23.12 21.3787L23.0907 21.3493L23.0547 21.3147L23.0147 21.2787L22.984 21.244L22.9547 21.208L22.928 21.1733L22.904 21.1333L22.8773 21.088L22.8587 21.052L22.8427 21.012L22.828 20.9667L22.8133 20.9267L22.8027 20.876L22.7933 20.8307V20.78L22.7827 20.7293V20.5133L22.788 20.4627L22.7933 20.412L22.8027 20.372L22.8133 20.3213L22.828 20.2813L22.8387 20.2307L22.8587 20.1907L22.8787 20.14L22.8987 20.1L22.924 20.0493L22.9493 20.0093L22.984 19.9693L23.0107 19.9293L23.0507 19.8893L23.0853 19.8533L23.116 19.8133L23.1613 19.7773L23.1907 19.752L23.236 19.7213L23.276 19.692L23.316 19.6653L23.3667 19.6413L23.4067 19.6213L23.4587 19.596L23.4987 19.576L23.5493 19.56L23.5987 19.54L23.6493 19.5253L23.6853 19.5147L23.7347 19.5053L23.7747 19.4947L23.8253 19.4853L23.876 19.4747L23.9267 19.4693L23.9773 19.464L24.028 19.46L24.0733 19.4493ZM11.7573 19.4853H12.7L12.72 19.5307L12.74 19.576L12.76 19.6213L12.7747 19.672L12.7947 19.7173L12.8147 19.7627L12.836 19.808L12.856 19.8533L12.8707 19.8987L12.896 19.948L12.916 19.9933L12.936 20.04L12.9467 20.0853L12.9667 20.1307L12.992 20.176L13.012 20.2253L13.032 20.2707L13.0467 20.316L13.0667 20.3613L13.0933 20.4067L13.1067 20.452L13.128 20.5027L13.1427 20.5533L13.1627 20.5933L13.1893 20.644L13.208 20.684L13.228 20.7347L13.244 20.7853L13.2587 20.8253L13.284 20.876L13.304 20.916L13.324 20.9667L13.3387 21.0067L13.36 21.0573L13.3853 21.108L13.4053 21.1533L13.42 21.1987L13.4347 21.244L13.4547 21.2893L13.4813 21.3347L13.5 21.384L13.5213 21.4307L13.5347 21.476L13.556 21.5213L13.576 21.5667L13.596 21.612L13.616 21.6613L13.632 21.7067L13.652 21.752L13.6773 21.7973L13.6973 21.8427L13.7173 21.888L13.728 21.9387L13.748 21.984L13.7733 22.0293L13.7933 22.0747L13.808 22.12L13.828 22.1653L13.848 22.216L13.8747 22.2667L13.888 22.3067L13.9093 22.3573L13.924 22.3973L13.944 22.448L13.9693 22.4987L13.9893 22.5387L14.004 22.5893L14.0253 22.6293L14.04 22.68L14.0653 22.72L14.0853 22.7707L14.1 22.8213L14.12 22.8613L14.1413 22.912L14.1653 22.952L14.1867 23.0027L14.2 23.052L14.216 23.092L14.236 23.1427L14.2627 23.1827H13.2187L13.192 23.1387L13.1787 23.0933L13.1573 23.048L13.1373 22.9973L13.1227 22.952L13.1027 22.9067L13.0827 22.8613L13.0667 22.816L13.0467 22.7707L13.0267 22.7253L13.012 22.68L12.992 22.6293L12.972 22.584L12.956 22.5387L12.936 22.4933H11.4893L11.4693 22.544L11.4547 22.584L11.4347 22.6347L11.4093 22.684L11.3987 22.724L11.3787 22.776L11.3587 22.816L11.344 22.8667L11.324 22.9067L11.304 22.9573L11.288 22.9973L11.268 23.048L11.248 23.0973L11.228 23.1373L11.2133 23.188H10.18L10.2 23.1387L10.22 23.0933L10.24 23.048L10.256 22.9973L10.2693 22.952L10.296 22.9067L10.316 22.8613L10.336 22.816L10.3507 22.7707L10.3707 22.72L10.3973 22.6747L10.416 22.6293L10.432 22.584L10.4467 22.5387L10.4667 22.4933L10.4933 22.4427L10.512 22.3973L10.532 22.352L10.548 22.3067L10.568 22.2613L10.588 22.216L10.608 22.1653L10.628 22.1147L10.644 22.0747L10.664 22.024L10.6893 21.984L10.7093 21.9333L10.724 21.884L10.7387 21.844L10.7587 21.7933L10.7853 21.7533L10.804 21.7027L10.8253 21.6627L10.8387 21.612L10.86 21.5613L10.8853 21.5213L10.9 21.4707L10.92 21.4307L10.936 21.38L10.956 21.3293L10.9813 21.2893L11.0013 21.2387L11.016 21.1987L11.036 21.148L11.052 21.108L11.0773 21.0573L11.0973 21.0067L11.1173 20.9613L11.132 20.916L11.152 20.8707L11.1787 20.8253L11.1973 20.78L11.208 20.7293L11.228 20.684L11.248 20.6387L11.2733 20.5933L11.2933 20.548L11.308 20.5027L11.3293 20.452L11.3493 20.4027L11.3693 20.3627L11.3893 20.312L11.404 20.272L11.424 20.2213L11.444 20.1707L11.4707 20.1307L11.4893 20.08L11.5053 20.04L11.52 19.9893L11.54 19.9493L11.5667 19.8987L11.5853 19.848L11.6013 19.808L11.6213 19.7573L11.6413 19.7173L11.6667 19.6667L11.6813 19.616L11.696 19.576L11.7173 19.5253L11.7573 19.4853ZM14.68 19.5107H15.7133L15.7427 19.5507L15.7693 19.596L15.7987 19.636L15.824 19.6813L15.8493 19.7213L15.8747 19.7667L15.8987 19.8067L15.9293 19.8533L15.9547 19.8933L15.98 19.9333L16.0053 19.9787L16.0307 20.0187L16.0653 20.064L16.0853 20.104L16.112 20.1507L16.1413 20.1907L16.172 20.2307L16.192 20.276L16.2213 20.316L16.248 20.3613L16.2667 20.4013L16.3027 20.448L16.328 20.488L16.3533 20.5333L16.3787 20.5733L16.4027 20.6133L16.4333 20.6587L16.4587 20.6987L16.484 20.7453L16.5093 20.7853L16.5347 20.8307L16.564 20.8707L16.5907 20.916L16.6147 20.956L16.6453 20.916L16.6653 20.8653L16.696 20.8307L16.7253 20.78L16.752 20.7453L16.7707 20.6947L16.8067 20.6587L16.832 20.6093L16.852 20.5733L16.8827 20.5333L16.912 20.4827L16.9387 20.448L16.9627 20.3973L16.988 20.3613L17.0187 20.312L17.0427 20.276L17.0693 20.2253L17.0933 20.1907L17.12 20.1507L17.1493 20.1L17.1747 20.064L17.2 20.0147L17.2293 19.9787L17.256 19.928L17.28 19.8933L17.3107 19.8533L17.336 19.8027L17.3653 19.7667L17.392 19.7173L17.416 19.6813L17.4427 19.6307L17.472 19.596L17.4973 19.5453L17.5227 19.5107H18.5653V23.2293H17.5867V21.0427L17.5627 21.0773L17.532 21.128L17.5067 21.1627L17.476 21.2027L17.4507 21.2533L17.4213 21.2893L17.3947 21.3293L17.3653 21.38L17.34 21.4147L17.3147 21.4547L17.28 21.4947L17.2547 21.5467L17.224 21.5813L17.1987 21.6213L17.1747 21.672L17.144 21.7067L17.1187 21.7467L17.088 21.7973L17.0627 21.8333L17.0333 21.8733L17.0067 21.924L16.9827 21.9587L16.952 21.9987L16.9267 22.0493L16.8973 22.0853L16.8667 22.1253L16.8413 22.1653L16.816 22.216L16.7853 22.252L16.756 22.292L16.736 22.3427L16.7 22.3773L16.6747 22.4173L16.6453 22.468L16.6187 22.504H16.6L16.5693 22.4587L16.544 22.4187L16.5133 22.372L16.488 22.332L16.4587 22.2867L16.432 22.2467L16.4027 22.2013L16.3773 22.1613L16.348 22.116L16.3213 22.076L16.2867 22.0293L16.2667 21.9893L16.236 21.944L16.2067 21.904L16.18 21.8587L16.1507 21.8187L16.1253 21.768L16.096 21.728L16.0693 21.6827L16.04 21.6427L16.0147 21.596L15.984 21.556L15.96 21.5107L15.9293 21.4707L15.904 21.4253L15.8733 21.3853L15.848 21.34L15.8187 21.3L15.792 21.2533L15.7627 21.2133L15.7373 21.168L15.7027 21.128L15.6827 21.0827L15.652 21.0427V23.2347H14.6853V19.5547L14.68 19.5107ZM19.3067 19.5107H22.2387V20.3507H20.2787V20.9467H22.0413V21.7373H20.28V22.3773H22.2653V23.2187H19.312V19.54L19.3067 19.5107ZM12.216 20.6493L12.196 20.7L12.18 20.74L12.16 20.7907L12.14 20.84L12.1253 20.8853L12.1053 20.9307L12.084 20.9813L12.064 21.032L12.0493 21.072L12.0293 21.1227L12.0093 21.1627L11.9933 21.2133L11.9733 21.264L11.9533 21.304L11.9387 21.3547L11.9187 21.3947L11.8987 21.4453L11.8773 21.496L11.864 21.536L11.8427 21.5867L11.8227 21.6373L11.808 21.6773L11.7867 21.728H12.644L12.624 21.6773L12.608 21.632L12.588 21.5813L12.568 21.536L12.5533 21.4907L12.5333 21.4453L12.5133 21.3947L12.4973 21.3493L12.4773 21.304L12.4573 21.2587L12.4427 21.2133L12.4227 21.1627L12.4067 21.1173L12.3867 21.072L12.3667 21.0267L12.352 20.9813L12.332 20.932L12.312 20.8813L12.296 20.8413L12.276 20.7907L12.256 20.74L12.2413 20.6947L12.216 20.6493ZM10.6827 27.6133H21.3667L15.9133 29.4133L10.6827 27.6133Z" fill="#BEBEBE"/>
</g>
<defs>
<clipPath id="clip0_6_1371">
<rect width="32" height="32" fill="white"/>
</clipPath>
</defs>
</svg>
