<svg width="20" height="20" viewBox="0 0 20 20" fill="none" xmlns="http://www.w3.org/2000/svg">
<g clip-path="url(#clip0_2_100)">
<path d="M20 0H0V20H20V0Z" fill="white" fill-opacity="0.01"/>
<path fill-rule="evenodd" clip-rule="evenodd" d="M9.79921 4C6.59641 4 4 6.59638 4 9.79917C4 13.002 6.59641 15.5983 9.79921 15.5983C11.0395 15.5983 12.1888 15.209 13.1317 14.5458L14.9378 16.352C15.3283 16.7425 15.9615 16.7425 16.352 16.352C16.7425 15.9614 16.7425 15.3283 16.352 14.9378L14.5459 13.1316C15.209 12.1888 15.5984 11.0395 15.5984 9.79917C15.5984 6.59638 13.002 4 9.79921 4ZM6 9.79917C6 7.70097 7.70097 6 9.79921 6C11.8974 6 13.5984 7.70097 13.5984 9.79917C13.5984 11.8974 11.8974 13.5983 9.79921 13.5983C7.70097 13.5983 6 11.8974 6 9.79917Z" fill="#A0A0A0"/>
</g>
<defs>
<clipPath id="clip0_2_100">
<rect width="20" height="20" fill="white"/>
</clipPath>
</defs>
</svg>
