<svg width="24" height="24" viewBox="0 0 24 24" fill="none" xmlns="http://www.w3.org/2000/svg">
<path d="M20.3621 7.75881C20.2637 15.1787 15.5189 20.2609 8.43592 20.5801C5.515 20.7138 3.3989 19.7703 1.55731 18.6004C3.71614 18.9449 6.39306 18.082 7.82474 16.8564C5.70864 16.6506 4.45577 15.5735 3.86954 13.8401C4.48102 13.9458 5.1252 13.9177 5.70613 13.7947C3.7966 13.1555 2.43302 11.9753 2.36256 9.50232C2.89841 9.74628 3.45702 9.97561 4.19914 10.0208C2.77008 9.20797 1.71337 6.23654 2.92366 4.27166C5.0446 6.59639 7.59585 8.49344 11.7851 8.75007C10.7333 4.25404 16.6913 1.81597 19.1848 4.83775C20.2389 4.63383 21.0969 4.23391 21.9222 3.79863C21.5825 4.84273 20.9283 5.57239 20.1308 6.1561C21.0063 6.03792 21.7811 5.82401 22.4431 5.49693C22.0325 6.34988 21.1346 7.11476 20.3621 7.75881Z" fill="#CCCCCC"/>
</svg>
