<svg width="24" height="24" viewBox="0 0 24 24" fill="none" xmlns="http://www.w3.org/2000/svg">
<path d="M21.8 6.6499C21.95 7.29992 22.1 8.34992 22.15 9.69992L22.2 11.5499V13.4999C22.15 14.8999 22 15.9499 21.85 16.5999C21.75 16.9999 21.5 17.3999 21.2 17.6999C20.9 17.9999 20.5 18.2499 20.05 18.3499C19.4 18.4999 17.9 18.6499 15.5 18.7499L12 18.7999L8.59999 18.7499C6.19999 18.6499 4.69998 18.5499 4.04999 18.3499C3.59999 18.2499 3.19998 17.9999 2.89998 17.6999C2.5 17.3999 2.29998 16.9999 2.14998 16.5999C1.99998 15.8999 1.84998 14.8999 1.79999 13.4999L1.75 11.6499C1.75 11.0999 1.75 10.4999 1.79999 9.7999C1.84998 8.4499 1.99998 7.3999 2.14998 6.74991C2.29998 6.1999 2.5 5.79992 2.84999 5.49992C3.19998 5.19992 3.55 4.94991 4 4.79991C4.64999 4.64991 6.14999 4.49991 8.54999 4.44992L12 4.3999L15.4 4.44992C17.8 4.49991 19.35 4.64991 20 4.79991C20.45 4.89992 20.85 5.1499 21.15 5.4499C21.45 5.79992 21.7 6.1999 21.8 6.6499ZM9.89999 14.6999L15.25 11.6499L9.89999 8.5999V14.6999Z" fill="#CCCCCC"/>
</svg>
